<?xml version="1.0" encoding="utf-8"?>
<!-- Generated by IcoMoon.io -->
<svg version="1.1" xmlns="http://www.w3.org/2000/svg" xmlns:xlink="http://www.w3.org/1999/xlink" width="880" height="40" viewBox="0 0 880 40">
<svg id="linkedin-icon" width="40" height="40" viewBox="0 0 40 40" x="0" y="0">
<path fill="#4d5ae5" d="M40 20c0 5.523-2.239 10.523-5.858 14.142s-8.619 5.858-14.142 5.858c-5.523 0-10.523-2.239-14.142-5.858s-5.858-8.619-5.858-14.142c0-5.523 2.239-10.523 5.858-14.142s8.619-5.858 14.142-5.858c5.523 0 10.523 2.239 14.142 5.858s5.858 8.619 5.858 14.142z"></path>
<path fill="#f4f4fd" d="M31.994 32v-0.001h0.006v-8.802c0-4.306-0.927-7.623-5.961-7.623-2.42 0-4.044 1.328-4.707 2.587h-0.070v-2.185h-4.773v16.023h4.97v-7.934c0-2.089 0.396-4.109 2.983-4.109 2.549 0 2.587 2.384 2.587 4.243v7.801h4.965z"></path>
<path fill="#f4f4fd" d="M8.396 15.977h4.976v16.023h-4.976v-16.023z"></path>
<path fill="#f4f4fd" d="M10.882 8c-1.591 0-2.882 1.291-2.882 2.882s1.291 2.909 2.882 2.909 2.882-1.318 2.882-2.909c-0.001-1.591-1.292-2.882-2.882-2.882v0z"></path>
</svg>
<svg id="facebook-icon" width="40" height="40" viewBox="0 0 40 40" x="56" y="0">
<path fill="#4d5ae5" d="M40 20c0 5.523-2.239 10.523-5.858 14.142s-8.619 5.858-14.142 5.858c-5.523 0-10.523-2.239-14.142-5.858s-5.858-8.619-5.858-14.142c0-5.523 2.239-10.523 5.858-14.142s8.619-5.858 14.142-5.858c5.523 0 10.523 2.239 14.142 5.858s5.858 8.619 5.858 14.142z"></path>
<path fill="#f4f4fd" d="M23.997 11.985h2.191v-3.816c-0.378-0.052-1.678-0.169-3.192-0.169-3.159 0-5.323 1.987-5.323 5.639v3.361h-3.486v4.266h3.486v10.734h4.274v-10.733h3.345l0.531-4.266h-3.877v-2.939c0.001-1.233 0.333-2.077 2.051-2.077z"></path>
</svg>
<svg id="twitter-icon" width="40" height="40" viewBox="0 0 40 40" x="112" y="0">
<path fill="#4d5ae5" d="M40 20c0 5.523-2.239 10.523-5.858 14.142s-8.619 5.858-14.142 5.858c-5.523 0-10.523-2.239-14.142-5.858s-5.858-8.619-5.858-14.142c0-5.523 2.239-10.523 5.858-14.142s8.619-5.858 14.142-5.858c5.523 0 10.523 2.239 14.142 5.858s5.858 8.619 5.858 14.142z"></path>
<path fill="#f4f4fd" d="M32 12.559c-0.892 0.391-1.844 0.651-2.835 0.777 1.020-0.609 1.799-1.566 2.164-2.719-0.951 0.567-2.001 0.968-3.12 1.191-0.903-0.961-2.19-1.557-3.594-1.557-2.724 0-4.917 2.211-4.917 4.921 0 0.39 0.033 0.765 0.114 1.122-4.091-0.199-7.71-2.16-10.141-5.146-0.424 0.736-0.674 1.579-0.674 2.487 0 1.704 0.877 3.214 2.186 4.089-0.791-0.015-1.566-0.244-2.223-0.606 0 0.015 0 0.034 0 0.054 0 2.391 1.706 4.377 3.942 4.834-0.401 0.109-0.837 0.162-1.29 0.162-0.315 0-0.633-0.018-0.931-0.084 0.637 1.949 2.446 3.381 4.598 3.428-1.674 1.309-3.799 2.099-6.101 2.099-0.404 0-0.791-0.018-1.178-0.067 2.179 1.406 4.763 2.208 7.548 2.208 9.054 0 14.004-7.5 14.004-14.001 0-0.217-0.008-0.428-0.018-0.636 0.976-0.693 1.797-1.559 2.466-2.554z"></path>
</svg>
<svg id="instagram-icon" width="40" height="40" viewBox="0 0 40 40" x="168" y="0">
<path fill="#4d5ae5" d="M40 20c0 5.523-2.239 10.523-5.858 14.142s-8.619 5.858-14.142 5.858c-5.523 0-10.523-2.239-14.142-5.858s-5.858-8.619-5.858-14.142c0-5.523 2.239-10.523 5.858-14.142s8.619-5.858 14.142-5.858c5.523 0 10.523 2.239 14.142 5.858s5.858 8.619 5.858 14.142z"></path>
<path fill="#f4f4fd" d="M31.976 15.056c-0.056-1.275-0.262-2.152-0.558-2.912-0.305-0.806-0.774-1.528-1.388-2.128-0.6-0.609-1.327-1.083-2.124-1.383-0.764-0.295-1.636-0.502-2.911-0.558-1.285-0.061-1.692-0.075-4.951-0.075s-3.666 0.014-4.946 0.070c-1.275 0.056-2.152 0.263-2.911 0.558-0.806 0.305-1.529 0.774-2.129 1.388-0.609 0.6-1.083 1.327-1.383 2.124-0.295 0.764-0.502 1.636-0.558 2.911-0.061 1.285-0.075 1.693-0.075 4.951s0.014 3.666 0.070 4.946c0.056 1.275 0.263 2.152 0.558 2.912 0.305 0.806 0.778 1.528 1.388 2.128 0.6 0.609 1.327 1.083 2.124 1.383 0.764 0.295 1.636 0.502 2.912 0.558 1.28 0.056 1.688 0.070 4.946 0.070s3.666-0.014 4.946-0.070c1.275-0.056 2.152-0.262 2.911-0.558 1.613-0.624 2.888-1.899 3.512-3.511 0.295-0.764 0.502-1.636 0.558-2.912 0.056-1.28 0.070-1.688 0.070-4.946s-0.005-3.666-0.061-4.946zM29.815 24.855c-0.052 1.172-0.249 1.805-0.413 2.227-0.403 1.046-1.233 1.875-2.279 2.279-0.422 0.164-1.059 0.361-2.227 0.412-1.266 0.056-1.646 0.070-4.848 0.070s-3.587-0.014-4.848-0.070c-1.172-0.051-1.805-0.248-2.227-0.412-0.52-0.192-0.994-0.497-1.378-0.896-0.399-0.389-0.703-0.858-0.896-1.378-0.164-0.422-0.361-1.060-0.412-2.227-0.056-1.266-0.070-1.646-0.070-4.848s0.014-3.587 0.070-4.848c0.051-1.172 0.248-1.805 0.412-2.227 0.192-0.521 0.497-0.994 0.9-1.379 0.389-0.399 0.858-0.703 1.378-0.895 0.422-0.164 1.060-0.361 2.227-0.413 1.266-0.056 1.646-0.070 4.848-0.070 3.207 0 3.587 0.014 4.848 0.070 1.172 0.052 1.805 0.249 2.227 0.413 0.52 0.192 0.994 0.497 1.378 0.895 0.399 0.389 0.703 0.858 0.896 1.379 0.164 0.422 0.361 1.059 0.413 2.227 0.056 1.266 0.070 1.646 0.070 4.848s-0.014 3.577-0.070 4.843z"></path>
<path fill="#f4f4fd" d="M20.044 13.837c-3.404 0-6.165 2.761-6.165 6.165s2.762 6.165 6.165 6.165c3.404 0 6.165-2.761 6.165-6.165s-2.761-6.165-6.165-6.165zM20.044 24.002c-2.208 0-3.999-1.791-3.999-3.999s1.791-3.999 3.999-3.999c2.208 0 3.999 1.791 3.999 3.999s-1.791 3.999-3.999 3.999z"></path>
<path fill="#f4f4fd" d="M27.893 13.593c0 0.795-0.644 1.439-1.439 1.439s-1.439-0.644-1.439-1.439c0-0.795 0.644-1.439 1.439-1.439s1.439 0.644 1.439 1.439z"></path>
</svg>
</svg>
